# Blender v2.78 (sub 0) OBJ File: 'Jukebox5.blend'
# www.blender.org
mtllib Speaker.mtl
o spesec
v -0.124653 0.319774 -0.003285
v -0.124653 0.051514 -0.003285
v 0.124671 0.319774 -0.003285
v 0.124671 0.051514 -0.003285
v 0.124671 0.051514 -0.003811
v -0.124653 0.051514 -0.003811
v 0.124671 0.319774 -0.003811
v -0.124653 0.319774 -0.003811
v 0.124671 0.051514 -0.003285
v -0.124653 0.051514 -0.003285
v 0.124671 0.051514 -0.003811
v -0.124653 0.051514 -0.003811
v 0.124671 0.319774 -0.003285
v 0.124671 0.051514 -0.003285
v 0.124671 0.319774 -0.003811
v 0.124671 0.051514 -0.003811
v -0.124653 0.319774 -0.003285
v 0.124671 0.319774 -0.003285
v -0.124653 0.319774 -0.003811
v 0.124671 0.319774 -0.003811
v -0.124653 0.051514 -0.003285
v -0.124653 0.319774 -0.003285
v -0.124653 0.051514 -0.003811
v -0.124653 0.319774 -0.003811
v -0.004616 0.099710 0.002902
v -0.006821 0.096641 0.002743
v -0.003647 0.122683 0.002254
v -0.016848 0.118423 0.002254
v -0.021467 0.114541 0.002254
v -0.024174 0.109920 0.002254
v -0.024728 0.107458 0.002254
v -0.010726 0.091207 0.002254
v -0.003647 0.089744 0.002254
v -0.019375 0.120248 0.001935
v -0.024684 0.115786 0.001935
v 0.024800 0.115786 0.001935
v -0.004659 0.127183 0.001576
v -0.031500 0.107798 0.001576
v -0.027349 0.095610 0.001576
v -0.004659 0.085243 0.001576
v 0.004774 0.085243 0.001576
v 0.021583 0.090668 0.001576
v 0.027464 0.095610 0.001576
v 0.031615 0.104628 0.001576
v -0.005012 0.128753 0.001184
v -0.014701 0.126751 0.001184
v -0.023079 0.122923 0.001184
v -0.029401 0.117611 0.001184
v -0.033105 0.111286 0.001184
v -0.033863 0.107917 0.001184
v -0.033863 0.104510 0.001184
v -0.029401 0.094816 0.001184
v -0.023079 0.089504 0.001184
v -0.014701 0.085676 0.001184
v 0.005128 0.083673 0.001184
v 0.023194 0.089504 0.001184
v 0.029516 0.094816 0.001184
v 0.033979 0.104510 0.001184
v 0.033221 0.111286 0.001184
v 0.029516 0.117611 0.001184
v 0.023195 0.122923 0.001184
v 0.014817 0.126751 0.001184
v 0.005128 0.128753 0.001184
v -0.005252 0.129820 0.000768
v -0.015400 0.127723 0.000768
v -0.024174 0.123714 0.000768
v -0.030795 0.118150 0.000768
v -0.033105 0.114935 0.000768
v -0.034675 0.111526 0.000768
v -0.035468 0.107997 0.000768
v -0.035468 0.104429 0.000768
v -0.034675 0.100901 0.000768
v -0.033105 0.097491 0.000768
v -0.030795 0.094277 0.000768
v -0.024174 0.088713 0.000768
v -0.015400 0.084704 0.000768
v -0.005252 0.082606 0.000768
v 0.005367 0.082606 0.000768
v 0.015515 0.084704 0.000768
v 0.024289 0.088713 0.000768
v 0.030910 0.094277 0.000768
v 0.033221 0.097491 0.000768
v 0.034790 0.100901 0.000768
v 0.035584 0.104429 0.000768
v 0.035584 0.107997 0.000768
v 0.034790 0.111526 0.000768
v 0.033221 0.114935 0.000768
v 0.030911 0.118150 0.000768
v 0.024289 0.123714 0.000768
v 0.015515 0.127723 0.000768
v 0.005368 0.129820 0.000768
v 0.000058 0.130632 0.000338
v -0.005373 0.130360 0.000338
v -0.010683 0.129547 0.000338
v -0.015753 0.128214 0.000338
v -0.020469 0.126389 0.000338
v -0.024728 0.124114 0.000338
v -0.028432 0.121438 0.000338
v -0.031500 0.118423 0.000338
v -0.033863 0.115135 0.000338
v -0.035468 0.111647 0.000338
v -0.036280 0.108038 0.000338
v -0.036280 0.104388 0.000338
v -0.035468 0.100780 0.000338
v -0.033863 0.097292 0.000338
v -0.031500 0.094004 0.000338
v -0.028432 0.090988 0.000338
v -0.024728 0.088313 0.000338
v -0.020469 0.086037 0.000338
v -0.015753 0.084213 0.000338
v -0.010683 0.082879 0.000338
v -0.005373 0.082067 0.000338
v 0.000058 0.081794 0.000338
v 0.005489 0.082067 0.000338
v 0.010798 0.082879 0.000338
v 0.015868 0.084213 0.000338
v 0.020585 0.086037 0.000338
v 0.024843 0.088313 0.000338
v 0.028547 0.090988 0.000338
v 0.031615 0.094004 0.000338
v 0.033978 0.097292 0.000338
v 0.035584 0.100780 0.000338
v 0.036396 0.104388 0.000338
v 0.036396 0.108038 0.000338
v 0.035584 0.111647 0.000338
v 0.033979 0.115135 0.000338
v 0.031616 0.118423 0.000338
v 0.028548 0.121438 0.000338
v 0.024843 0.124114 0.000338
v 0.020585 0.126389 0.000338
v 0.015868 0.128214 0.000338
v 0.010799 0.129547 0.000338
v 0.005489 0.130360 0.000338
v 0.000058 0.130632 0.000338
v 0.000058 0.130698 0.000166
v -0.005388 0.130424 0.000166
v -0.005373 0.130360 0.000338
v -0.010712 0.129610 0.000166
v -0.010683 0.129547 0.000338
v -0.015795 0.128273 0.000166
v -0.015753 0.128214 0.000338
v -0.020524 0.126443 0.000166
v -0.020469 0.126389 0.000338
v -0.024794 0.124162 0.000166
v -0.024728 0.124114 0.000338
v -0.028508 0.121479 0.000166
v -0.028432 0.121438 0.000338
v -0.031585 0.118456 0.000166
v -0.031500 0.118423 0.000338
v -0.033954 0.115159 0.000166
v -0.033863 0.115135 0.000338
v -0.035564 0.111662 0.000166
v -0.035468 0.111647 0.000338
v -0.036377 0.108043 0.000166
v -0.036280 0.108038 0.000338
v -0.036377 0.104384 0.000166
v -0.036280 0.104388 0.000338
v -0.035564 0.100765 0.000166
v -0.035468 0.100780 0.000338
v -0.033954 0.097268 0.000166
v -0.033863 0.097292 0.000338
v -0.031585 0.093971 0.000166
v -0.031500 0.094004 0.000338
v -0.028508 0.090948 0.000166
v -0.028432 0.090988 0.000338
v -0.024794 0.088265 0.000166
v -0.024728 0.088313 0.000338
v -0.020525 0.085983 0.000166
v -0.020469 0.086037 0.000338
v -0.015795 0.084154 0.000166
v -0.015753 0.084213 0.000338
v -0.010712 0.082817 0.000166
v -0.010683 0.082879 0.000338
v -0.005388 0.082002 0.000166
v -0.005373 0.082067 0.000338
v 0.000058 0.081729 0.000166
v 0.000058 0.081794 0.000338
v 0.005503 0.082002 0.000166
v 0.005489 0.082067 0.000338
v 0.010827 0.082817 0.000166
v 0.010798 0.082879 0.000338
v 0.015911 0.084154 0.000166
v 0.015868 0.084213 0.000338
v 0.020640 0.085983 0.000166
v 0.020585 0.086037 0.000338
v 0.024909 0.088265 0.000166
v 0.024843 0.088313 0.000338
v 0.028624 0.090947 0.000166
v 0.028547 0.090988 0.000338
v 0.031700 0.093971 0.000166
v 0.031615 0.094004 0.000338
v 0.034069 0.097268 0.000166
v 0.033978 0.097292 0.000338
v 0.035679 0.100765 0.000166
v 0.035584 0.100780 0.000338
v 0.036493 0.104384 0.000166
v 0.036396 0.104388 0.000338
v 0.036493 0.108043 0.000166
v 0.036396 0.108038 0.000338
v 0.035679 0.111662 0.000166
v 0.035584 0.111647 0.000338
v 0.034069 0.115158 0.000166
v 0.033979 0.115135 0.000338
v 0.031700 0.118455 0.000166
v 0.031616 0.118423 0.000338
v 0.028624 0.121479 0.000166
v 0.028548 0.121438 0.000338
v 0.024910 0.124162 0.000166
v 0.024843 0.124114 0.000338
v 0.020640 0.126443 0.000166
v 0.020585 0.126389 0.000338
v 0.015911 0.128273 0.000166
v 0.015868 0.128214 0.000338
v 0.010827 0.129610 0.000166
v 0.010799 0.129547 0.000338
v 0.005503 0.130424 0.000166
v 0.005489 0.130360 0.000338
v -0.005388 0.130424 0.000166
v 0.000058 0.130698 0.000166
v -0.010712 0.129610 0.000166
v -0.015795 0.128273 0.000166
v -0.020524 0.126443 0.000166
v -0.024794 0.124162 0.000166
v -0.028508 0.121479 0.000166
v -0.031585 0.118456 0.000166
v -0.033954 0.115159 0.000166
v -0.035564 0.111662 0.000166
v -0.036377 0.108043 0.000166
v -0.036377 0.104384 0.000166
v -0.035564 0.100765 0.000166
v -0.033954 0.097268 0.000166
v -0.031585 0.093971 0.000166
v -0.028508 0.090948 0.000166
v -0.024794 0.088265 0.000166
v -0.020525 0.085983 0.000166
v -0.015795 0.084154 0.000166
v -0.010712 0.082817 0.000166
v -0.005388 0.082002 0.000166
v 0.000058 0.081729 0.000166
v 0.005503 0.082002 0.000166
v 0.010827 0.082817 0.000166
v 0.015911 0.084154 0.000166
v 0.020640 0.085983 0.000166
v 0.024909 0.088265 0.000166
v 0.028624 0.090947 0.000166
v 0.031700 0.093971 0.000166
v 0.034069 0.097268 0.000166
v 0.035679 0.100765 0.000166
v 0.036493 0.104384 0.000166
v 0.036493 0.108043 0.000166
v 0.035679 0.111662 0.000166
v 0.034069 0.115158 0.000166
v 0.031700 0.118455 0.000166
v 0.028624 0.121479 0.000166
v 0.024910 0.124162 0.000166
v 0.020640 0.126443 0.000166
v 0.015911 0.128273 0.000166
v 0.010827 0.129610 0.000166
v 0.005503 0.130424 0.000166
vt 0.4793 0.2882
vt 0.4788 0.2901
vt 0.4575 0.2872
vt 0.4372 0.2825
vt 0.4386 0.2808
vt 0.6273 0.2481
vt 0.6245 0.2471
vt 0.6337 0.2358
vt 0.6368 0.2365
vt 0.5643 0.1276
vt 0.5641 0.1278
vt 0.5437 0.1231
vt 0.5439 0.1229
vt 0.3860 0.2588
vt 0.3863 0.2587
vt 0.4012 0.2681
vt 0.4009 0.2683
vt 0.5832 0.2763
vt 0.5830 0.2761
vt 0.6001 0.2681
vt 0.6004 0.2683
vt 0.3736 0.1621
vt 0.3740 0.1622
vt 0.3645 0.1738
vt 0.3641 0.1737
vt 0.4078 0.2639
vt 0.4034 0.2667
vt 0.3768 0.2471
vt 0.3824 0.2452
vt 0.5643 0.2827
vt 0.5641 0.2825
vt 0.5224 0.1203
vt 0.5219 0.1222
vt 0.4793 0.1222
vt 0.4788 0.1203
vt 0.5006 0.1193
vt 0.3577 0.1860
vt 0.3581 0.1861
vt 0.3548 0.1987
vt 0.3544 0.1987
vt 0.3548 0.2116
vt 0.3581 0.2114
vt 0.3612 0.2238
vt 0.3581 0.2243
vt 1.0000 1.0000
vt 0.0000 1.0000
vt 0.0000 0.0000
vt 1.0000 0.0000
vt 0.6276 0.1621
vt 0.6273 0.1622
vt 0.6150 0.1516
vt 0.6153 0.1515
vt 0.5224 0.2901
vt 0.5219 0.2882
vt 0.5627 0.2808
vt 0.5641 0.2825
vt 0.5437 0.2872
vt 0.3740 0.1622
vt 0.3768 0.1632
vt 0.3675 0.1745
vt 0.3645 0.1738
vt 0.4858 0.2631
vt 0.5999 0.2388
vt 0.6189 0.2452
vt 0.5935 0.2639
vt 0.5599 0.2774
vt 0.4817 0.2789
vt 0.5210 0.2844
vt 0.4803 0.2844
vt 0.0000 1.0000
vt 1.0000 1.0000
vt 1.0000 0.0000
vt 0.0000 0.0000
vt 0.3740 0.2107
vt 0.3645 0.2111
vt 0.3645 0.1992
vt 0.3824 0.1651
vt 0.3906 0.1679
vt 0.4183 0.2761
vt 0.4180 0.2763
vt 0.3645 0.2365
vt 0.3675 0.2358
vt 0.3740 0.2481
vt 0.5935 0.1464
vt 0.5870 0.1505
vt 0.5196 0.1314
vt 0.5210 0.1259
vt 0.5979 0.2667
vt 0.6001 0.2681
vt 0.5830 0.2761
vt 0.6432 0.1861
vt 0.6400 0.1865
vt 0.6337 0.1745
vt 0.6368 0.1738
vt 0.5006 0.2910
vt 0.6465 0.1987
vt 0.6432 0.1989
vt 0.4078 0.1464
vt 0.4414 0.1329
vt 0.4817 0.1314
vt 0.4858 0.1472
vt 0.4574 0.1524
vt 0.6245 0.1632
vt 0.6189 0.1651
vt 0.5979 0.1436
vt 0.0000 1.0000
vt 1.0000 1.0000
vt 1.0000 0.0000
vt 0.0000 0.0000
vt 0.6106 0.1679
vt 0.4730 0.1715
vt 0.3675 0.2230
vt 0.4012 0.2095
vt 0.4034 0.2182
vt 0.4142 0.2344
vt 0.4013 0.2388
vt 0.4012 0.2681
vt 0.3863 0.2587
vt 0.6273 0.1996
vt 0.6368 0.1992
vt 0.6337 0.2230
vt 0.6432 0.2114
vt 0.6400 0.2238
vt 0.5627 0.1295
vt 0.5641 0.1278
vt 0.5830 0.1342
vt 0.6001 0.1422
vt 0.3581 0.1989
vt 0.3612 0.1865
vt 0.4788 0.1200
vt 0.4788 0.1203
vt 0.4575 0.1231
vt 0.4574 0.1229
vt 0.4386 0.1295
vt 0.4372 0.1278
vt 0.4575 0.1231
vt 0.4034 0.1436
vt 0.4012 0.1422
vt 0.4182 0.1342
vt 0.4183 0.2761
vt 0.5225 0.2903
vt 0.5224 0.2901
vt 0.5437 0.2872
vt 0.5439 0.2874
vt 0.6469 0.2116
vt 0.6465 0.2116
vt 0.6465 0.1987
vt 0.6469 0.1987
vt 0.3548 0.1987
vt 0.4819 0.1823
vt 0.5437 0.1231
vt 0.3863 0.1516
vt 0.3577 0.2243
vt 0.3581 0.2243
vt 0.3645 0.2365
vt 0.3641 0.2366
vt 0.4328 0.2481
vt 0.4226 0.2545
vt 0.3860 0.1515
vt 0.3863 0.1516
vt 0.3736 0.2482
vt 0.3740 0.2481
vt 0.6432 0.2243
vt 1.0000 0.0000
vt 1.0000 1.0000
vt 0.0000 1.0000
vt 0.0000 0.0000
vt 0.6465 0.2116
vt 0.4180 0.1340
vt 0.4182 0.1342
vt 0.4012 0.1422
vt 0.4009 0.1420
vt 0.0000 1.0000
vt 1.0000 1.0000
vt 1.0000 0.0000
vt 0.0000 0.0000
vt 0.4414 0.2774
vt 0.6004 0.1420
vt 0.6001 0.1422
vt 0.5830 0.1342
vt 0.5832 0.1340
vt 0.0000 1.0000
vt 1.0000 1.0000
vt 1.0000 0.0000
vt 0.0000 0.0000
vt 0.3548 0.2116
vt 0.3544 0.2116
vt 0.6432 0.1861
vt 0.6436 0.1860
vt 0.6273 0.1622
vt 0.6150 0.1516
vt 0.4372 0.2825
vt 0.4370 0.2827
vt 0.3581 0.1861
vt 0.6150 0.2587
vt 0.6153 0.2588
vt 0.6436 0.2243
vt 0.6432 0.2243
vt 0.5006 0.2913
vt 0.5006 0.2910
vt 0.6368 0.1738
vt 0.6371 0.1737
vt 0.6276 0.2482
vt 0.6273 0.2481
vt 0.6368 0.2365
vt 0.6371 0.2366
vt 0.4788 0.2903
vt 0.4788 0.2901
vt 0.4575 0.2872
vt 0.4574 0.2874
vt 0.5225 0.1200
vt 0.5224 0.1203
vt 0.5006 0.1193
vt 0.5006 0.1191
vt 0.6150 0.2587
vt 0.4372 0.1278
vt 0.4370 0.1276
vt 0.4788 0.1200
vt 0.4574 0.1229
vt 0.4370 0.1276
vt 0.4180 0.1340
vt 0.4009 0.1420
vt 0.3860 0.1515
vt 0.3736 0.1621
vt 0.3641 0.1737
vt 0.3577 0.1860
vt 0.3544 0.1987
vt 0.3544 0.2116
vt 0.3577 0.2243
vt 0.3641 0.2366
vt 0.3736 0.2482
vt 0.3860 0.2588
vt 0.4009 0.2683
vt 0.4180 0.2763
vt 0.4370 0.2827
vt 0.4574 0.2874
vt 0.4788 0.2903
vt 0.5006 0.2913
vt 0.5225 0.2903
vt 0.5439 0.2874
vt 0.5643 0.2827
vt 0.5832 0.2763
vt 0.6004 0.2683
vt 0.6153 0.2588
vt 0.6276 0.2482
vt 0.6371 0.2366
vt 0.6436 0.2243
vt 0.6469 0.2116
vt 0.6469 0.1987
vt 0.6436 0.1860
vt 0.6371 0.1737
vt 0.6276 0.1621
vt 0.6153 0.1515
vt 0.6004 0.1420
vt 0.5832 0.1340
vt 0.5643 0.1276
vt 0.5439 0.1229
vt 0.5225 0.1200
vt 0.5006 0.1191
vn -0.0386 0.4482 0.8931
vn -0.0448 0.5284 0.8478
vn -0.0928 0.5208 0.8486
vn -0.1513 0.4894 0.8588
vn -0.1267 0.4094 0.9035
vn 0.3681 0.3131 0.8755
vn 0.2766 0.2501 0.9279
vn 0.3295 0.1891 0.9250
vn 0.4323 0.2344 0.8707
vn 0.2695 -0.8891 0.3699
vn 0.3018 -0.8768 0.3742
vn 0.2050 -0.9082 0.3649
vn 0.1733 -0.9158 0.3624
vn -0.5676 0.7081 0.4199
vn -0.6000 0.6761 0.4277
vn -0.5010 0.7643 0.4061
vn -0.4676 0.7883 0.3999
vn 0.4005 0.8292 0.3900
vn 0.3675 0.8467 0.3849
vn 0.4675 0.7881 0.4004
vn 0.5009 0.7640 0.4066
vn -0.6947 -0.5624 0.4485
vn -0.6647 -0.6039 0.4398
vn -0.7503 -0.4701 0.4647
vn -0.7755 -0.4195 0.4717
vn -0.1134 0.2190 0.9691
vn -0.2151 0.3501 0.9117
vn -0.2855 0.2469 0.9260
vn -0.1513 0.1405 0.9785
vn 0.3019 0.8765 0.3751
vn 0.2694 0.8884 0.3718
vn 0.0448 -0.5281 0.8480
vn 0.0417 -0.3928 0.9187
vn -0.0435 -0.4010 0.9150
vn -0.0648 -0.5246 0.8489
vn -0.0104 -0.5363 0.8440
vn -0.8379 -0.2514 0.4844
vn -0.8202 -0.3102 0.4808
vn -0.8608 -0.1280 0.4926
vn -0.8678 -0.0642 0.4927
vn -0.4643 0.0692 0.8829
vn -0.3588 0.0401 0.9326
vn -0.3491 0.1272 0.9284
vn -0.4491 0.1704 0.8771
vn 0.0000 0.0000 -1.0000
vn 0.6636 -0.6026 0.4432
vn 0.6941 -0.5620 0.4499
vn 0.5998 -0.6759 0.4282
vn 0.5674 -0.7081 0.4204
vn 0.0649 0.5246 0.8489
vn 0.0416 0.4405 0.8968
vn 0.1335 0.4131 0.9008
vn 0.1706 0.4781 0.8616
vn 0.1132 0.5134 0.8506
vn -0.3682 -0.3132 0.8754
vn -0.2699 -0.2397 0.9326
vn -0.3188 -0.1717 0.9321
vn -0.4325 -0.2345 0.8706
vn 0.0035 0.0787 0.9969
vn 0.0505 0.0593 0.9970
vn 0.1528 0.1387 0.9785
vn 0.0958 0.2134 0.9723
vn 0.0745 0.2244 0.9717
vn -0.0186 0.1406 0.9899
vn 0.0233 0.2563 0.9663
vn -0.0324 0.2555 0.9663
vn 0.0000 -1.0000 0.0000
vn -0.1092 0.0060 0.9940
vn -0.1904 0.0141 0.9816
vn -0.1815 -0.0409 0.9825
vn -0.1520 -0.1339 0.9793
vn -0.0778 -0.0780 0.9939
vn -0.4007 0.8298 0.3883
vn -0.3678 0.8472 0.3834
vn -0.4222 0.2652 0.8669
vn -0.3202 0.1890 0.9283
vn -0.3550 0.3402 0.8708
vn 0.1237 -0.1925 0.9735
vn 0.0672 -0.1297 0.9893
vn 0.0214 -0.2066 0.9782
vn 0.0244 -0.2732 0.9616
vn 0.2104 0.3444 0.9150
vn 0.2646 0.3894 0.8823
vn 0.2114 0.4511 0.8671
vn 0.4493 -0.1705 0.8770
vn 0.3221 -0.1210 0.9389
vn 0.3115 -0.1866 0.9317
vn 0.4222 -0.2652 0.8668
vn 0.0103 0.5356 0.8444
vn 0.4641 -0.0693 0.8831
vn 0.3390 -0.0401 0.9399
vn -0.1160 -0.2151 0.9697
vn -0.0664 -0.2176 0.9738
vn -0.0250 -0.2559 0.9664
vn -0.0187 -0.1024 0.9946
vn -0.0445 -0.0924 0.9947
vn 0.2788 -0.2364 0.9308
vn 0.1699 -0.1390 0.9756
vn 0.2045 -0.3383 0.9186
vn 0.0000 1.0000 0.0000
vn 0.0827 -0.0575 0.9949
vn -0.0178 -0.0406 0.9990
vn -0.1796 0.0688 0.9813
vn -0.0842 0.0081 0.9964
vn -0.0657 0.0192 0.9977
vn -0.0487 0.0312 0.9983
vn -0.0738 0.0768 0.9943
vn -0.2476 0.4090 0.8783
vn -0.2824 0.3710 0.8847
vn 0.0937 -0.0165 0.9955
vn 0.1782 -0.0286 0.9836
vn 0.1773 0.0661 0.9819
vn 0.3634 0.0431 0.9306
vn 0.3427 0.1245 0.9312
vn 0.1099 -0.3748 0.9206
vn 0.1513 -0.4892 0.8589
vn 0.1925 -0.4668 0.8631
vn 0.2475 -0.4085 0.8786
vn -0.3606 -0.0437 0.9317
vn -0.3358 -0.1295 0.9330
vn -0.1100 -0.9278 0.3565
vn -0.0785 -0.9314 0.3553
vn -0.1731 -0.9157 0.3626
vn -0.2050 -0.9084 0.3644
vn -0.1281 -0.3940 0.9102
vn -0.1705 -0.4779 0.8617
vn -0.1133 -0.5134 0.8506
vn -0.2161 -0.3402 0.9152
vn -0.2646 -0.3894 0.8823
vn -0.2114 -0.4511 0.8670
vn -0.1926 0.4669 0.8631
vn 0.1097 0.9268 0.3591
vn 0.0783 0.9303 0.3582
vn 0.1734 0.9166 0.3602
vn 0.2050 0.9084 0.3644
vn 0.8683 0.0643 0.4918
vn 0.8620 0.1282 0.4905
vn 0.8683 -0.0643 0.4918
vn 0.8620 -0.1281 0.4904
vn -0.4664 -0.0347 0.8839
vn -0.0207 -0.0142 0.9997
vn 0.0928 -0.5209 0.8486
vn -0.2981 -0.3472 0.8892
vn -0.8201 0.3102 0.4809
vn -0.8376 0.2516 0.4849
vn -0.7756 0.4195 0.4716
vn -0.7504 0.4700 0.4648
vn -0.0230 0.0774 0.9967
vn -0.0242 0.0778 0.9967
vn -0.6001 -0.6762 0.4273
vn -0.5677 -0.7085 0.4192
vn -0.6640 0.6033 0.4416
vn -0.6943 0.5623 0.4491
vn 0.4554 0.1372 0.8796
vn 0.0000 -0.0000 1.0000
vn 0.4663 0.0347 0.8839
vn -0.4008 -0.8296 0.3886
vn -0.3676 -0.8471 0.3837
vn -0.4676 -0.7881 0.4004
vn -0.5015 -0.7647 0.4045
vn -1.0000 -0.0000 0.0000
vn -0.0686 0.2487 0.9661
vn 0.4675 -0.7879 0.4007
vn 0.5006 -0.7637 0.4076
vn 0.4007 -0.8296 0.3888
vn 0.3676 -0.8469 0.3843
vn 1.0000 0.0000 0.0000
vn -0.8678 0.0642 0.4928
vn -0.8608 0.1277 0.4926
vn 0.8382 -0.2518 0.4838
vn 0.8205 -0.3104 0.4800
vn 0.3551 -0.3404 0.8707
vn 0.2823 -0.3709 0.8847
vn -0.3019 0.8764 0.3752
vn -0.2694 0.8882 0.3722
vn -0.4556 -0.1373 0.8796
vn 0.5676 0.7081 0.4199
vn 0.6011 0.6769 0.4249
vn 0.8386 0.2518 0.4830
vn 0.8219 0.3110 0.4772
vn 0.0157 0.9354 0.3532
vn -0.0155 0.9354 0.3533
vn 0.7765 -0.4201 0.4696
vn 0.7509 -0.4702 0.4638
vn 0.6962 0.5635 0.4447
vn 0.6650 0.6041 0.4393
vn 0.7527 0.4716 0.4594
vn 0.7776 0.4207 0.4672
vn -0.0785 0.9303 0.3584
vn -0.1098 0.9266 0.3596
vn -0.2049 0.9085 0.3641
vn -0.1732 0.9165 0.3607
vn 0.0784 -0.9315 0.3552
vn 0.1098 -0.9279 0.3564
vn 0.0157 -0.9342 0.3563
vn -0.0155 -0.9342 0.3564
vn 0.2982 0.3473 0.8891
vn -0.2695 -0.8891 0.3699
vn -0.3017 -0.8765 0.3751
usemtl spesec
s 1
f 64/1/1 93/2/2 94/3/3 95/4/4 65/5/5
f 127/6/6 88/7/7 87/8/8 126/9/9
f 182/10/10 183/11/11 181/12/12 180/13/13
f 146/14/14 147/15/15 145/16/16 144/17/17
f 210/18/18 211/19/19 209/20/20 208/21/21
f 162/22/22 163/23/23 161/24/24 160/25/25
f 47/26/26 66/27/27 67/28/28 48/29/29
f 212/30/30 213/31/31 211/19/19 210/18/18
f 114/32/32 78/33/33 77/34/34 112/35/35 113/36/36
f 158/37/37 159/38/38 157/39/39 156/40/40
f 102/41/41 70/42/42 69/43/43 101/44/44
f 8/45/45 7/46/45 5/47/45 6/48/45
f 190/49/46 191/50/47 189/51/48 188/52/49
f 133/53/50 91/54/51 90/55/52 131/56/53 132/57/54
f 106/58/55 74/59/56 73/60/57 105/61/58
f 27/62/59 36/63/60 60/64/61 61/65/62 62/66/63 37/67/64
f 62/66/63 63/68/65 45/69/66 37/67/64
f 12/70/67 11/71/67 9/72/67 10/73/67
f 38/74/68 50/75/69 51/76/70 52/77/71 39/78/72
f 144/17/17 145/16/16 143/79/73 142/80/74
f 100/81/75 68/82/76 67/28/28 99/83/77
f 56/84/78 42/85/79 41/86/80 55/87/81
f 90/55/52 89/88/82 129/89/83 130/90/84 131/56/53
f 122/91/85 83/92/86 82/93/87 121/94/88
f 93/2/2 64/1/1 91/54/51 133/53/50 92/95/89
f 123/96/90 84/97/91 83/92/86 122/91/85
f 39/78/72 52/77/71 53/98/92 54/99/93 40/100/94 33/101/95 32/102/96
f 81/103/97 57/104/98 56/84/78 80/105/99
f 20/106/100 19/107/100 17/108/100 18/109/100
f 43/110/101 26/111/102 32/102/96 33/101/95 40/100/94 41/86/80 42/85/79
f 48/29/29 49/112/103 50/75/69 38/74/68 31/113/104 30/114/105 29/115/106 35/116/107
f 67/28/28 66/27/27 97/117/108 98/118/109 99/83/77
f 60/64/61 36/63/60 44/119/110 58/120/111 59/121/112
f 58/120/111 84/97/91 85/122/113 86/123/114 59/121/112
f 80/105/99 79/124/115 116/125/116 117/126/117 118/127/118
f 52/77/71 51/76/70 71/128/119 72/129/120 73/60/57 74/59/56
f 160/25/25 161/24/24 159/38/38 158/37/37
f 174/130/121 175/131/122 173/132/123 172/133/124
f 112/35/35 77/34/34 76/134/125 110/135/126 111/136/127
f 110/135/126 76/134/125 75/137/128 108/138/129 109/139/130
f 97/117/108 66/27/27 65/5/5 95/4/4 96/140/131
f 216/141/132 217/142/133 215/143/134 214/144/135
f 198/145/136 199/146/137 197/147/138 196/148/139
f 103/149/140 71/128/119 70/42/42 102/41/41
f 80/105/99 56/84/78 55/87/81 78/33/33 79/124/115
f 38/74/68 39/78/72 32/102/96 26/111/102 25/150/141 30/114/105 31/113/104
f 71/128/119 51/76/70 50/75/69 49/112/103 69/43/43 70/42/42
f 116/125/116 79/124/115 78/33/33 114/32/32 115/151/142
f 74/59/56 106/58/55 107/152/143 108/138/129 75/137/128
f 152/153/144 153/154/145 151/155/146 150/156/147
f 69/43/43 49/112/103 48/29/29 67/28/28 68/82/76
f 27/62/59 28/157/148 34/158/149 35/116/107 29/115/106 30/114/105 25/150/141 26/111/102 43/110/101 44/119/110 36/63/60
f 164/159/150 165/160/151 163/23/23 162/22/22
f 148/161/152 149/162/153 147/15/15 146/14/14
f 126/9/9 87/8/8 86/123/114 125/163/154
f 4/164/155 3/165/155 1/166/155 2/167/155
f 125/163/154 86/123/114 85/122/113 124/168/156
f 168/169/157 169/170/158 167/171/159 166/172/160
f 101/44/44 69/43/43 68/82/76 100/81/75
f 24/173/161 23/174/161 21/175/161 22/176/161
f 47/26/26 46/177/162 65/5/5 66/27/27
f 65/5/5 46/177/162 45/69/66 63/68/65 91/54/51 64/1/1
f 186/178/163 187/179/164 185/180/165 184/181/166
f 61/65/62 89/88/82 90/55/52 91/54/51 63/68/65 62/66/63
f 16/182/167 15/183/167 13/184/167 14/185/167
f 52/77/71 74/59/56 75/137/128 53/98/92
f 124/168/156 85/122/113 84/97/91 123/96/90
f 34/158/149 28/157/148 27/62/59 37/67/64 45/69/66 46/177/162 47/26/26 48/29/29 35/116/107
f 40/100/94 54/99/93 55/87/81 41/86/80
f 60/64/61 59/121/112 86/123/114 87/8/8 88/7/7
f 61/65/62 60/64/61 88/7/7 89/88/82
f 214/144/135 215/143/134 213/31/31 212/30/30
f 156/40/40 157/39/39 155/186/168 154/187/169
f 43/110/101 42/85/79 56/84/78 57/104/98 58/120/111 44/119/110
f 196/148/139 197/147/138 195/188/170 194/189/171
f 55/87/81 54/99/93 76/134/125 77/34/34 78/33/33
f 120/190/172 81/103/97 80/105/99 118/127/118 119/191/173
f 76/134/125 54/99/93 53/98/92 75/137/128
f 142/80/74 143/79/73 141/192/174 140/193/175
f 105/61/58 73/60/57 72/129/120 104/194/176
f 121/94/88 82/93/87 81/103/97 120/190/172
f 208/21/21 209/20/20 207/195/177 206/196/178
f 104/194/176 72/129/120 71/128/119 103/149/140
f 200/197/179 201/198/180 199/146/137 198/145/136
f 135/199/181 134/200/182 217/142/133 216/141/132
f 166/172/160 167/171/159 165/160/151 164/159/150
f 194/189/171 195/188/170 193/201/183 192/202/184
f 204/203/185 205/204/186 203/205/187 202/206/188
f 136/207/189 137/208/190 134/200/182 135/199/181
f 184/181/166 185/180/165 183/11/11 182/10/10
f 140/193/175 141/192/174 139/209/191 138/210/192
f 202/206/188 203/205/187 201/198/180 200/197/179
f 188/52/49 189/51/48 187/179/164 186/178/163
f 178/211/193 179/212/194 177/213/195 176/214/196
f 150/156/147 151/155/146 149/162/153 148/161/152
f 176/214/196 177/213/195 175/131/122 174/130/121
f 129/89/83 89/88/82 88/7/7 127/6/6 128/215/197
f 172/133/124 173/132/123 171/216/198 170/217/199
f 58/120/111 57/104/98 81/103/97 82/93/87 83/92/86 84/97/91
f 154/187/169 155/186/168 153/154/145 152/153/144
f 192/202/184 193/201/183 191/50/47 190/49/46
f 170/217/199 171/216/198 169/170/158 168/169/157
f 206/196/178 207/195/177 205/204/186 204/203/185
f 180/13/13 181/12/12 179/212/194 178/211/193
f 138/210/192 139/209/191 137/208/190 136/207/189
f 238/218/45 237/219/45 236/220/45 235/221/45 234/222/45 233/223/45 232/224/45 231/225/45 230/226/45 229/227/45 228/228/45 227/229/45 226/230/45 225/231/45 224/232/45 223/233/45 222/234/45 221/235/45 220/236/45 218/237/45 219/238/45 259/239/45 258/240/45 257/241/45 256/242/45 255/243/45 254/244/45 253/245/45 252/246/45 251/247/45 250/248/45 249/249/45 248/250/45 247/251/45 246/252/45 245/253/45 244/254/45 243/255/45 242/256/45 241/257/45 240/258/45 239/259/45
